<svg xmlns="http://www.w3.org/2000/svg" xmlns:xlink="http://www.w3.org/1999/xlink" version="1.1" x="0px" y="0px" viewBox="0 0 100 100" enable-background="new 0 0 100 100" xml:space="preserve"><path d="M72.374,55.809h5.59v5.59h-5.59V55.809z M72.374,44.619v5.6h5.59v5.59h5.601v-11.19H72.374z M66.774,50.219v-5.6h-39.15  v16.78h5.59v5.6H16.435v5.59h11.189v5.59h39.15v-5.59h11.189v-5.59H61.185v-5.6h5.59v-5.59h5.6v-5.59H66.774z M61.185,39.029v-5.59  h-5.59v5.59H61.185z M61.185,16.648h-5.59v11.19h5.59V16.648z M55.595,33.438v-5.6h-5.601v5.6H55.595z M44.404,39.029h5.59v-5.59  h-5.59V39.029z M49.994,16.648h-5.59v11.19h5.59V16.648z M44.404,33.438v-5.6h-5.59v5.6H44.404z M33.214,39.029h5.601v-5.59h-5.601  V39.029z M38.814,16.648h-5.601v11.19h5.601V16.648z M27.624,27.838v5.6h5.59v-5.6H27.624z"></path></svg>