<?xml version="1.0" standalone="no"?>
<!DOCTYPE svg PUBLIC "-//W3C//DTD SVG 20010904//EN"
 "http://www.w3.org/TR/2001/REC-SVG-20010904/DTD/svg10.dtd">
<svg version="1.0" xmlns="http://www.w3.org/2000/svg"
 width="400.000000pt" height="400.000000pt" viewBox="0 0 400.000000 400.000000"
 preserveAspectRatio="xMidYMid meet">
<metadata>
Created by potrace 1.11, written by Peter Selinger 2001-2013
</metadata>
<g transform="translate(0.000000,400.000000) scale(0.100000,-0.100000)"
fill="#000000" stroke="none">
<path d="M1052 3390 c0 -166 -2 -304 -6 -307 -3 -4 -71 -6 -151 -6 -99 0 -145
-3 -146 -11 -1 -6 -2 -75 -2 -154 l-2 -142 153 0 152 0 1 -62 c1 -35 1 -102 0
-150 0 -49 3 -89 7 -89 4 -1 73 -2 155 -3 l147 -1 0 152 0 153 153 0 153 0 0
153 -1 152 -150 1 -150 1 -3 306 -2 307 -155 0 -154 0 1 -300z m308 -467 l0
-153 -154 0 -155 0 1 154 1 154 153 -1 154 -1 0 -153z"/>
<path d="M1669 3688 c-6 -18 -2 -601 5 -605 14 -9 287 -9 293 0 2 4 5 141 5
305 l0 297 -151 3 c-83 1 -151 1 -152 0z"/>
<path d="M2278 3383 l-3 -307 -153 1 -153 1 1 -72 c1 -39 1 -108 1 -153 l-1
-83 -149 0 c-110 0 -150 -3 -153 -12 -3 -11 -3 -234 1 -278 2 -23 301 -23 302
0 0 8 0 77 0 153 l-2 137 156 0 155 0 0 -153 0 -153 152 1 153 0 0 153 1 152
-153 0 -153 0 0 154 0 153 133 1 c72 0 141 1 152 1 20 1 20 7 20 306 l0 305
-152 0 -153 0 -2 -307z"/>
<path d="M749 2156 c0 0 -1 -207 -2 -459 l-2 -457 40 -1 c22 0 91 0 153 1 85
1 112 -2 113 -12 1 -13 0 -200 -1 -265 l0 -33 -458 0 -458 0 0 -152 1 -153
295 -1 c162 -1 300 -2 306 -3 8 -1 11 -49 10 -151 l-1 -150 70 0 c88 -1 2010
-1 2048 0 l27 0 0 150 c0 113 3 150 13 151 6 1 140 3 297 4 157 1 290 3 295 4
7 1 10 56 10 151 l0 150 -460 0 -460 0 1 147 c1 82 2 151 3 155 0 4 54 7 119
7 64 0 132 0 149 0 l32 1 3 153 3 152 152 0 152 0 -1 150 -1 150 154 3 155 2
-1 -150 c0 -96 3 -150 10 -151 5 -1 74 -2 153 -3 l142 -2 0 307 0 307 -305 -1
c-273 0 -305 -1 -306 -16 0 -9 0 -78 0 -153 l1 -138 -155 0 -155 0 0 154 0
154 -1070 -1 c-588 0 -1070 0 -1071 -1z"/>
<path d="M3203 1537 c-7 -11 -6 -288 1 -295 4 -3 223 -5 289 -3 9 1 12 37 12
151 0 82 -2 151 -5 151 -27 7 -293 2 -297 -4z"/>
</g>
</svg>
